<svg xmlns="http://www.w3.org/2000/svg" xmlns:xlink="http://www.w3.org/1999/xlink" width="270" zoomAndPan="magnify" viewBox="0 0 202.5 112.499997" height="150" preserveAspectRatio="xMidYMid meet" version="1.0"><defs><clipPath id="ae0e8ca8c3"><path d="M 0.199219 0 L 201.804688 0 L 201.804688 112.003906 L 0.199219 112.003906 Z M 0.199219 0 " clip-rule="nonzero"/></clipPath></defs><g clip-path="url(#ae0e8ca8c3)"><path fill="#ffffff" d="M 0.199219 0 L 201.804688 0 L 201.804688 112.003906 L 0.199219 112.003906 Z M 0.199219 0 " fill-opacity="1" fill-rule="nonzero"/><path fill="#ffffff" d="M 0.199219 0 L 201.804688 0 L 201.804688 112.003906 L 0.199219 112.003906 Z M 0.199219 0 " fill-opacity="1" fill-rule="nonzero"/></g><path fill="#918f8f" d="M 63.550781 28.664062 C 62.703125 38.84375 62.296875 60.890625 74.113281 79.160156 C 80.316406 70.285156 87.628906 63.601562 95.3125 58.792969 C 91.609375 39.261719 75.109375 31.628906 63.550781 28.664062 " fill-opacity="1" fill-rule="evenodd"/><path fill="#7b7979" d="M 136.085938 51.671875 C 133.441406 69.152344 124.8125 90.082031 99.875 100.761719 L 99.867188 100.765625 L 99.867188 100.757812 C 88.59375 95.929688 80.652344 89.003906 75.089844 81.253906 C 82.203125 70.808594 90.871094 63.433594 99.867188 58.59375 C 100.371094 58.320312 100.875 58.058594 101.382812 57.804688 C 113.445312 51.722656 125.980469 50.101562 136.085938 51.671875 " fill-opacity="1" fill-rule="evenodd"/><path fill="#a7a5a6" d="M 136.609375 22.960938 C 136.558594 23.652344 138.011719 31.988281 137.375 43.1875 C 133.871094 41.40625 130.128906 40.042969 126.375 39.179688 C 118.109375 37.285156 109.75 37.808594 103.667969 41.597656 C 102.578125 39.699219 101.441406 37.96875 100.265625 36.375 C 92.234375 25.453125 82.605469 21.457031 74.007812 20.5625 C 89.855469 16.34375 100.199219 11.492188 100.265625 11.460938 L 100.265625 11.457031 C 100.265625 11.457031 115.148438 18.449219 136.609375 22.960938 " fill-opacity="1" fill-rule="evenodd"/><path fill="#648e86" d="M 126.046875 41.554688 C 132.855469 43.117188 139.621094 46.40625 144.84375 50.882812 C 136.230469 48.207031 117.910156 45.109375 97.402344 57.375 C 92.113281 32.671875 67.414062 26.476562 56.808594 24.949219 C 66.140625 21.910156 88.277344 18.152344 102.441406 43.925781 L 103.074219 45.082031 L 104.140625 44.3125 C 109.710938 40.292969 117.894531 39.683594 126.046875 41.554688 " fill-opacity="1" fill-rule="evenodd"/></svg>